<?xml version="1.0" encoding="UTF-8" standalone="no"?>
<svg
   xmlns:dc="http://purl.org/dc/elements/1.1/"
   xmlns:cc="http://creativecommons.org/ns#"
   xmlns:rdf="http://www.w3.org/1999/02/22-rdf-syntax-ns#"
   xmlns:svg="http://www.w3.org/2000/svg"
   xmlns="http://www.w3.org/2000/svg"
   viewBox="0 0 810 283.08749"
   height="283.08749"
   width="810"
   xml:space="preserve"
   version="1.1"
   id="svg2"><metadata
     id="metadata8"><rdf:RDF><cc:Work
         rdf:about=""><dc:format>image/svg+xml</dc:format><dc:type
           rdf:resource="http://purl.org/dc/dcmitype/StillImage" /></cc:Work></rdf:RDF></metadata><defs
     id="defs6"><clipPath
       id="clipPath18"
       clipPathUnits="userSpaceOnUse"><path
         id="path20"
         d="M 0,2264.68 0,0 l 6480,0 0,2264.68 -6480,0 z" /></clipPath></defs><g
     transform="matrix(1.25,0,0,-1.25,0,283.0875)"
     id="g10"><g
       transform="scale(0.1,0.1)"
       id="g12"><g
         id="g14"><g
           clip-path="url(#clipPath18)"
           id="g16"><path
             id="path22"
             style="fill:#f1461f;fill-opacity:1;fill-rule:nonzero;stroke:none"
             d="m 1592.96,1510.7 c 51.1,5.3 107.29,0.25 150.61,-30.11 48.72,-34.29 62.17,-95.97 5.78,-128.25 -77.58,-43.39 -274.17,-47.74 -350.84,-4.81 0,0 8.98,143.92 194.45,163.17 z m 418.65,-304.73 c 103.3,128.12 81.73,332.96 -23.55,453.35 -192.31,219.71 -612.78,180.5 -795.15,-28.86 -93.58,-107.44 -141.54,-268.89 -141.83,-427.92 -0.75,-437.829 355.43,-558.349 576.78,-558.591 189.11,-0.347 320.3,69.063 352.53,86.699 196.21,106.641 74.01,361.892 -118.31,283.462 -7.5,-2.99 -358.96,-151.59 -464.37,85.9 69.06,-21.93 141.36,-36.04 213.46,-38.45 0,0 269.82,-17.46 400.44,144.41" /><path
             id="path24"
             style="fill:#f1461f;fill-opacity:1;fill-rule:nonzero;stroke:none"
             d="m 2757.61,1745.98 -72.55,0.12 0.29,147.33 c 0.15,94.35 -79.93,171.18 -178.58,171.35 -98.74,0.17 -182.18,-78.05 -182.32,-170.76 l -0.29,-147.29 -23.33,0 c -111.63,0.25 -173.13,-54.16 -173.31,-153.1 -0.15,-98.93 61.16,-153.42 172.75,-153.68 l 23.61,-0.04 11.43,-630.422 c -0.19,-95.218 72.52,-167.039 169.08,-167.207 98.64,-0.172 179.05,76.508 179.18,170.891 l 1,626.118 72.54,-0.05 c 111.58,-0.17 173.08,54.17 173.29,153.15 0.14,91.62 -61.21,153.42 -172.79,153.59" /><path
             id="path26"
             style="fill:#f1461f;fill-opacity:1;fill-rule:nonzero;stroke:none"
             d="m 693.5,1491.57 c -24.953,-65.11 -93.75,-110.25 -166.16,-110.12 -22.328,0 -44.402,4.09 -65.528,12.23 -43.976,16.88 -79.007,49.07 -98.867,90.71 -19.82,41.97 -21.8,88.45 -5.535,130.79 24.973,65.15 93.645,110.21 166.063,110.12 22.324,0 44.394,-4.12 65.457,-12.23 91.121,-34.99 138.023,-134.23 104.57,-221.5 z M 501.254,2057.8 C 205.969,2058.27 1.77734,1856.23 1.25391,1543.06 c -0.06641,-5.68 0.20703,-11.24 0.52343,-17.04 -0.33593,-3.63 -0.64843,-7.68 -0.60937,-12.32 L 0,821 c -0.144531,-96.359 77.9023,-174.641 174.332,-174.871 96.445,-0.09 174.766,77.82 174.91,174.293 l 12.512,293.498 c 80.039,-30.14 167.777,-43.43 256.891,-31.9 253.324,32.61 392.655,237.99 401.195,451.93 11.07,274.75 -151.324,523.27 -518.586,523.85" /><path
             id="path28"
             style="fill:#432f19;fill-opacity:1;fill-rule:nonzero;stroke:none"
             d="m 4610.69,1164.25 c -22.71,59.84 -80.38,98.64 -147.03,98.8 -20.47,0 -40.71,-3.71 -60.26,-11.1 -40.27,-15.45 -72.71,-44.86 -91.05,-83.11 -18.33,-38.46 -20.25,-81.14 -5.54,-120.07 22.67,-59.95 80.43,-98.719 147.04,-98.801 20.46,0 40.67,3.672 60.13,11.109 83.9,31.742 127.16,122.862 96.71,203.172 z m 325.49,-51.51 C 4935.89,882.648 4782.51,635.422 4447.13,636 c -293.67,0.5 -483.25,185.59 -482.75,471.66 0.33,220.63 133.29,415.06 263.33,576.09 203.75,252.11 264.51,294.71 343.74,294.58 103.22,-0.2 160.15,-95.04 160.06,-160.57 -0.12,-62.38 -46.23,-110.83 -110.37,-177.85 -30.53,-32.2 -66.39,-69.96 -103.2,-115.72 11.87,1.7 24.9,2.79 39.3,2.75 223.8,-0.45 379.23,-218.58 378.94,-414.2" /><path
             id="path30"
             style="fill:#432f19;fill-opacity:1;fill-rule:nonzero;stroke:none"
             d="m 6473.98,1655.28 c -6.06,-26.07 -16.83,-50.29 -31.61,-72.09 -48.41,-70.87 -131.64,-104.19 -212.11,-85.06 -52.41,12.48 -96.5,45.51 -124.1,93.08 -27.62,47.15 -35.58,102.94 -22.76,157.15 6.18,26.05 16.95,50.32 31.85,72.12 48.29,70.9 131.47,104.32 212.11,85.15 107.66,-25.72 173.52,-137.98 146.62,-250.35 z m -739.32,196.64 c -52.37,12.53 -96.55,45.53 -124.2,93.13 -27.53,47.11 -35.47,102.86 -22.51,157.06 6.09,26.1 16.79,50.37 31.65,72.12 48.4,70.91 131.67,104.28 212.23,85.11 107.54,-25.68 173.39,-137.98 146.66,-250.27 -6.19,-26.02 -16.87,-50.36 -31.74,-72.03 -48.44,-70.92 -131.76,-104.24 -212.09,-85.12 z m -392.11,5.1 c -48.23,-70.79 -131.57,-104.15 -211.97,-84.98 -52.42,12.52 -96.56,45.47 -124.32,93.03 -27.48,47.19 -35.42,102.95 -22.55,157.15 6.18,26.07 16.94,50.37 31.86,72.12 48.27,70.91 131.47,104.32 212.11,85.12 107.65,-25.73 173.46,-137.99 146.66,-250.32 -6.3,-26.02 -16.84,-50.24 -31.79,-72.12 z m 463.18,-617.48 c 13.95,-121.37 -77.56,-231.86 -204.14,-246.56 -29.31,-3.339 -58.46,-1.41 -86.73,5.84 -91.53,23.31 -157.52,97.05 -168.04,187.61 -6.72,58.96 10.68,117.27 49.62,163.94 38.49,46.2 93.2,75.55 154.34,82.61 29.32,3.42 58.55,1.38 86.83,-5.76 91.57,-23.35 157.55,-96.97 168.12,-187.68 z m -81.02,535.67 c -39.89,10.11 -81.76,16.2 -124.32,17.87 -318.93,12.49 -578.72,-232.56 -591.54,-560.93 -10.91,-276.591 161.45,-515.709 418.98,-581.349 40.05,-10.281 81.69,-16.199 124.24,-17.879 318.85,-12.531 578.68,232.519 591.62,560.938 10.86,276.62 -161.4,515.66 -418.98,581.35" /><path
             id="path32"
             style="fill:#432f19;fill-opacity:1;fill-rule:nonzero;stroke:none"
             d="m 3717.98,1363.74 c 89.99,83.69 110.16,174.81 110.29,239.46 0.32,212.31 -162.11,360.85 -395.07,361.23 -168.65,0.25 -404.2,-118.36 -404.48,-312.29 -0.15,-74.83 55.84,-155.06 139.44,-155.22 72.83,-0.13 112.42,41.63 147.49,78.25 33.58,35.33 62.6,65.11 120.32,65.78 80.73,0.87 93.72,-84.53 54.04,-115.84 -14.62,-11.54 -32.63,-22.64 -61.05,-28.83 -109.25,-25.76 -164.7,-56.62 -164.79,-153.91 -0.21,-106.25 71.87,-156.2 143.78,-158.5 124.45,-2.58 140.31,-56.74 140.23,-103.52 -0.04,-64.75 -46.9,-115.1 -106.61,-115.01 -84.25,0.09 -113.09,42.52 -146.45,91.62 -31.58,46.37 -67.37,98.89 -151,99.06 -71.59,0.09 -154.81,-67.32 -154.95,-154.61 -0.24,-173.39 180.67,-359.129 450.27,-359.629 255.16,-0.429 447.72,174.719 448.13,407.329 0.29,138.9 -62.26,253.25 -169.59,314.63" /><path
             id="path34"
             style="fill:#f1461f;fill-opacity:1;fill-rule:nonzero;stroke:none"
             d="m 420.785,397.469 -86.156,0 0,-120.008 86.156,0 c 37.434,0 63.602,24.641 63.602,59.969 0,35.91 -26.168,60.039 -63.602,60.039 z m 6.676,-165.207 -92.832,0 0,-109.742 c 0,-13.872 -11.301,-25.1411 -25.641,-25.1411 -13.847,0 -25.136,11.2691 -25.136,25.1411 l 0,286.742 c 0,18.437 14.886,33.316 33.343,33.316 l 110.266,0 c 70.266,0 109.227,-48.187 109.227,-105.148 0,-56.899 -39.985,-105.168 -109.227,-105.168" /><path
             id="path36"
             style="fill:#f1461f;fill-opacity:1;fill-rule:nonzero;stroke:none"
             d="m 689.68,317.461 c -49.231,0 -73.332,-41.09 -75.399,-75.422 l 151.824,0 c -1.027,33.32 -23.593,75.422 -76.425,75.422 z m 96.945,-107.742 -172.344,0 c 3.59,-42.528 34.367,-78.418 84.625,-78.418 21.028,0 43.606,7.16 61.559,20.449 3.07,1.59 6.66,2.59 10.254,2.59 8.203,0 18.461,-7.18 18.461,-18.449 0,-27.743 -63.582,-41.5199 -94.887,-41.5199 -73.855,0 -127.707,52.2889 -127.707,130.2189 0,71.82 51.809,129.781 123.617,129.781 60.008,0 101.035,-37.41 115.387,-92.859 2.062,-8.192 4.613,-18.961 4.613,-28.66 0,-12.352 -10.754,-23.133 -23.578,-23.133" /><path
             id="path38"
             style="fill:#f1461f;fill-opacity:1;fill-rule:nonzero;stroke:none"
             d="m 937.027,94.3711 c -38.957,0 -59.484,21.4809 -59.484,60.4689 l 0,153.34 -24.098,0 c -11.297,0 -20.004,8.781 -20.004,20.558 0,10.774 8.707,19.461 20.004,19.461 l 24.098,0 0,48.77 c 0,11.769 10.25,22.043 23.594,22.043 12.297,0 22.57,-10.274 22.57,-22.043 l 0,-48.77 33.848,0 c 10.769,0 19.48,-8.687 19.48,-20.469 0,-10.769 -8.711,-19.55 -19.48,-19.55 l -33.848,0 0,-142.571 c 0,-18.949 9.227,-30.718 24.102,-30.718 5.632,0 11.796,2.488 16.933,2.488 11.274,0 19.477,-8.18 19.477,-18.949 0,-16.36 -20,-24.0589 -47.192,-24.0589" /><path
             id="path40"
             style="fill:#f1461f;fill-opacity:1;fill-rule:nonzero;stroke:none"
             d="m 1296.19,397.469 -86.15,0 0,-120.008 86.15,0 c 37.45,0 63.61,24.641 63.61,59.969 0,35.91 -26.16,60.039 -63.61,60.039 z m 6.68,-165.207 -92.83,0 0,-109.742 c 0,-13.872 -11.28,-25.1411 -25.65,-25.1411 -13.83,0 -25.13,11.2691 -25.13,25.1411 l 0,286.742 c 0,18.437 14.86,33.316 33.35,33.316 l 110.26,0 c 70.27,0 109.25,-48.187 109.25,-105.148 0,-56.899 -40.01,-105.168 -109.25,-105.168" /><path
             id="path42"
             style="fill:#f1461f;fill-opacity:1;fill-rule:nonzero;stroke:none"
             d="m 1607.18,196.941 c -13.86,18.969 -38.46,28.731 -64.12,28.731 -33.32,0 -57.43,-20.543 -57.43,-50.281 0,-28.731 24.11,-48.782 57.43,-48.782 25.66,0 50.26,9.282 64.12,28.231 l 0,42.101 z m 22.56,-99.5621 -1.53,0 c -9.23,0 -21.03,7.7621 -21.03,22.6331 l 0,8.187 c -20,-22.058 -48.2,-33.8279 -81.55,-33.8279 -41.03,0 -86.15,27.6489 -86.15,82.0079 0,55.883 45.12,81.031 86.15,81.031 33.85,0 62.05,-10.781 81.55,-32.82 l 0,41.582 c 0,31.238 -25.63,49.699 -60.52,49.699 -23.07,0 -43.59,-7.172 -62.06,-21.543 -3.59,-2.508 -7.69,-4.09 -11.28,-4.09 -9.23,0 -18.98,7.172 -18.98,17.942 0,4.09 1.54,8.191 4.61,11.789 23.59,23.633 61.04,34.402 94.38,34.402 53.34,0 99.5,-23.043 99.5,-86.191 l 0,-148.168 c 0,-12.364 -10.27,-22.6331 -23.09,-22.6331" /><path
             id="path44"
             style="fill:#f1461f;fill-opacity:1;fill-rule:nonzero;stroke:none"
             d="m 1833.51,307.18 c -23.6,-2.078 -46.66,-12.282 -61.53,-34.41 l 0,-152.758 c 0,-12.364 -10.29,-22.6331 -23.1,-22.6331 l -0.5,0 c -12.32,0.5899 -22.05,10.2691 -22.05,22.6331 l 0,209.226 c 0,11.762 10.26,22.043 23.57,22.043 11.79,0 22.08,-10.281 22.08,-22.043 l 0,-19.457 c 13.84,18.957 36.4,42.008 64.09,42.008 11.8,0 20.52,-8.687 20.52,-20.461 0,-13.367 -10.26,-23.148 -23.08,-24.148" /><path
             id="path46"
             style="fill:#f1461f;fill-opacity:1;fill-rule:nonzero;stroke:none"
             d="m 2007.99,317.461 c -49.24,0 -73.34,-41.09 -75.41,-75.422 l 151.83,0 c -1.03,33.32 -23.6,75.422 -76.42,75.422 z m 96.95,-107.742 -172.36,0 c 3.6,-42.528 34.38,-78.418 84.64,-78.418 21.03,0 43.59,7.16 61.55,20.449 3.07,1.59 6.66,2.59 10.24,2.59 8.22,0 18.47,-7.18 18.47,-18.449 0,-27.743 -63.59,-41.5199 -94.88,-41.5199 -73.85,0 -127.71,52.2889 -127.71,130.2189 0,71.82 51.81,129.781 123.61,129.781 60.02,0 101.04,-37.41 115.39,-92.859 2.07,-8.192 4.61,-18.961 4.61,-28.66 0,-12.352 -10.76,-23.133 -23.56,-23.133" /><path
             id="path48"
             style="fill:#f1461f;fill-opacity:1;fill-rule:nonzero;stroke:none"
             d="m 2376.93,97.3789 c -12.34,0 -22.57,10.2691 -22.57,22.6331 l 0,139.488 c 0,41.012 -21.03,54.359 -52.84,54.359 -29.23,0 -55.39,-17.449 -68.72,-36.398 l 0,-157.449 c 0,-12.364 -10.28,-22.6331 -23.1,-22.6331 -12.29,0 -22.54,10.2691 -22.54,22.6331 l 0,209.226 c 0,11.762 10.25,22.043 23.57,22.043 11.79,0 22.07,-10.281 22.07,-22.043 l 0,-15.867 c 16.92,19.969 49.74,41 87.7,41 52.3,0 79.5,-27.211 79.5,-79.512 l 0,-154.847 c 0,-12.364 -10.27,-22.6331 -23.07,-22.6331" /><path
             id="path50"
             style="fill:#f1461f;fill-opacity:1;fill-rule:nonzero;stroke:none"
             d="m 2542.2,94.3711 c -38.95,0 -59.48,21.4809 -59.48,60.4689 l 0,153.34 -24.09,0 c -11.3,0 -20,8.781 -20,20.558 0,10.774 8.7,19.461 20,19.461 l 24.09,0 0,48.77 c 0,11.769 10.25,22.043 23.59,22.043 12.3,0 22.57,-10.274 22.57,-22.043 l 0,-48.77 33.85,0 c 10.77,0 19.49,-8.687 19.49,-20.469 0,-10.769 -8.72,-19.55 -19.49,-19.55 l -33.85,0 0,-142.571 c 0,-18.949 9.23,-30.718 24.09,-30.718 5.66,0 11.8,2.488 16.96,2.488 11.27,0 19.47,-8.18 19.47,-18.949 0,-16.36 -20,-24.0589 -47.2,-24.0589" /><path
             id="path52"
             style="fill:#f1461f;fill-opacity:1;fill-rule:nonzero;stroke:none"
             d="m 2653.58,97.3789 c -12.3,0 -22.54,10.2691 -22.54,22.6331 l 0,209.226 c 0,11.762 10.24,22.043 23.56,22.043 11.8,0 22.07,-10.281 22.07,-22.043 l 0,-209.226 c 0,-12.364 -10.27,-22.6331 -23.09,-22.6331 z m 29.25,312.8711 c 0,-15.859 -12.83,-29.23 -29.25,-29.23 -15.88,0 -29.23,13.371 -29.23,29.23 0,16.449 13.35,29.75 29.23,29.75 16.42,0 29.25,-13.301 29.25,-29.75" /><path
             id="path54"
             style="fill:#f1461f;fill-opacity:1;fill-rule:nonzero;stroke:none"
             d="m 2940.36,97.3789 c -12.33,0 -22.6,10.2691 -22.6,22.6331 l 0,139.488 c 0,41.012 -21,54.359 -52.82,54.359 -29.23,0 -55.38,-17.449 -68.7,-36.398 l 0,-157.449 c 0,-12.364 -10.28,-22.6331 -23.09,-22.6331 -12.31,0 -22.55,10.2691 -22.55,22.6331 l 0,209.226 c 0,11.762 10.24,22.043 23.57,22.043 11.79,0 22.07,-10.281 22.07,-22.043 l 0,-15.867 c 16.91,19.969 49.74,41 87.7,41 52.32,0 79.47,-27.211 79.47,-79.512 l 0,-154.847 c 0,-12.364 -10.23,-22.6331 -23.05,-22.6331" /><path
             id="path56"
             style="fill:#f1461f;fill-opacity:1;fill-rule:nonzero;stroke:none"
             d="m 3213.84,276.961 c -12.81,19.949 -41.04,36.898 -69.23,36.898 -46.15,0 -74.88,-35.898 -74.88,-87.687 0,-50.781 28.73,-87.203 74.88,-87.203 28.19,0 56.42,17.461 69.23,37.41 l 0,100.582 z M 3137.42,0 c -34.87,0 -69.74,7.17969 -93.83,30.2188 -3.09,3.1015 -5.14,7.6914 -5.14,12.7929 0,10.7774 9.23,19.5391 19.5,19.5391 4.59,0 8.19,-1 11.78,-3.6016 18.96,-15.9375 40.52,-21.539 67.69,-21.539 38.46,0 76.42,18.4687 76.42,71.2378 l 0,32.821 c -18.44,-25.039 -47.68,-43.0081 -81.55,-43.0081 -63.6,0 -109.75,47.1991 -109.75,127.7111 0,80.019 45.65,128.199 109.75,128.199 32.82,0 61.55,-15.359 81.55,-42.101 l 0,16.968 c 0,11.762 10.29,22.043 23.6,22.043 11.78,0 22.04,-10.281 22.04,-22.043 l 0,-219 C 3259.48,25.1289 3197.93,0 3137.42,0" /><path
             id="path58"
             style="fill:#f1461f;fill-opacity:1;fill-rule:nonzero;stroke:none"
             d="m 3357.08,95.3711 c -16.9,0 -31.27,14.3589 -31.27,31.8199 0,16.879 14.37,31.75 31.27,31.75 17.46,0 31.83,-14.871 31.83,-31.75 0,-17.461 -14.37,-31.8199 -31.83,-31.8199" /><path
             id="path60"
             style="fill:#f1461f;fill-opacity:1;fill-rule:nonzero;stroke:none"
             d="m 3701.87,94.3711 c -50.25,0 -95.9,16.8789 -122.57,43.0079 -4.09,4.691 -6.16,10.269 -6.16,15.961 0,12.769 9.75,25.14 23.6,25.14 4.6,0 10.24,-1.582 14.33,-4.671 23.6,-19.957 55.41,-34.84 92.84,-34.84 55.42,0 74.87,29.242 74.87,53.293 0,81.109 -201.04,34.41 -201.04,158.019 0,56.379 50.29,97.391 121.07,97.391 42.56,0 86.15,-13.281 111.8,-36.922 4.6,-4.09 6.68,-10.191 6.68,-15.859 0,-12.871 -11.32,-23.641 -24.15,-23.641 -4.59,0 -9.72,1.578 -13.81,4.68 -25.14,18.461 -54.89,27.14 -84.66,27.14 -38.46,0 -64.59,-19.968 -64.59,-49.199 0,-70.832 201.02,-28.73 201.02,-156.43 0,-53.371 -36.91,-103.0699 -129.23,-103.0699" /><path
             id="path62"
             style="fill:#f1461f;fill-opacity:1;fill-rule:nonzero;stroke:none"
             d="m 3912.33,97.3789 c -12.32,0 -22.58,10.2691 -22.58,22.6331 l 0,209.226 c 0,11.762 10.26,22.043 23.59,22.043 11.81,0 22.05,-10.281 22.05,-22.043 l 0,-209.226 c 0,-12.364 -10.24,-22.6331 -23.06,-22.6331 z m 29.24,312.8711 c 0,-15.859 -12.83,-29.23 -29.24,-29.23 -15.91,0 -29.23,13.371 -29.23,29.23 0,16.449 13.32,29.75 29.23,29.75 16.41,0 29.24,-13.301 29.24,-29.75" /><path
             id="path64"
             style="fill:#f1461f;fill-opacity:1;fill-rule:nonzero;stroke:none"
             d="m 4332.96,97.3789 c -12.33,0 -22.6,10.2691 -22.6,22.6331 l 0,145.66 c 0,29.226 -12.83,48.187 -43.06,48.187 -25.14,0 -50.28,-17.937 -62.07,-35.898 l 0,-157.949 c 0,-12.364 -10.27,-22.6331 -23.07,-22.6331 -12.33,0 -22.56,10.2691 -22.56,22.6331 l 0,145.66 c 0,29.226 -12.32,48.187 -43.59,48.187 -24.12,0 -48.74,-17.937 -61.06,-36.398 l 0,-157.449 c 0,-12.364 -10.24,-22.6331 -23.06,-22.6331 -12.32,0 -22.58,10.2691 -22.58,22.6331 l 0,209.226 c 0,11.762 10.26,22.043 23.59,22.043 11.81,0 22.05,-10.281 22.05,-22.043 l 0,-15.867 c 10.27,15.367 43.1,41 80.01,41 37.97,0 59.5,-19.449 67.2,-45.672 14.36,22.629 47.19,45.672 83.6,45.672 45.64,0 70.25,-24.641 70.25,-74.922 l 0,-159.437 c 0,-12.364 -10.25,-22.6331 -23.05,-22.6331" /><path
             id="path66"
             style="fill:#f1461f;fill-opacity:1;fill-rule:nonzero;stroke:none"
             d="m 4544.47,313.859 c -27.68,0 -56.41,-16.449 -68.74,-36.398 l 0,-105.672 c 12.33,-20.039 41.06,-36.898 68.74,-36.898 46.68,0 74.87,37.91 74.87,89.699 0,51.781 -28.19,89.269 -74.87,89.269 z m 12.82,-219.4879 c -32.83,0 -61.56,14.8669 -81.56,42.0079 l 0,-111.2501 c 0,-11.8477 -10.23,-22.03906 -23.05,-22.03906 -12.32,0 -22.6,10.19136 -22.6,22.03906 l 0,304.1091 c 0,11.762 10.28,22.043 23.59,22.043 11.83,0 22.06,-10.281 22.06,-22.043 l 0,-16.468 c 17.96,24.66 47.69,41.601 81.56,41.601 64.6,0 110.25,-48.769 110.25,-129.781 0,-80.52 -45.65,-130.2189 -110.25,-130.2189" /><path
             id="path68"
             style="fill:#f1461f;fill-opacity:1;fill-rule:nonzero;stroke:none"
             d="m 4747.76,97.3789 c -12.32,0 -22.59,10.2691 -22.59,22.6331 l 0,303.609 c 0,11.77 10.27,22.039 23.59,22.039 11.83,0 22.05,-10.269 22.05,-22.039 l 0,-303.609 c 0,-12.364 -10.22,-22.6331 -23.05,-22.6331" /><path
             id="path70"
             style="fill:#f1461f;fill-opacity:1;fill-rule:nonzero;stroke:none"
             d="m 4867.32,97.3789 c -12.33,0 -22.59,10.2691 -22.59,22.6331 l 0,209.226 c 0,11.762 10.26,22.043 23.59,22.043 11.83,0 22.05,-10.281 22.05,-22.043 l 0,-209.226 c 0,-12.364 -10.22,-22.6331 -23.05,-22.6331 z m 29.23,312.8711 c 0,-15.859 -12.81,-29.23 -29.23,-29.23 -15.9,0 -29.23,13.371 -29.23,29.23 0,16.449 13.33,29.75 29.23,29.75 16.42,0 29.23,-13.301 29.23,-29.75" /><path
             id="path72"
             style="fill:#f1461f;fill-opacity:1;fill-rule:nonzero;stroke:none"
             d="m 5138.17,97.3789 c -12.3,0 -22.59,10.2691 -22.59,22.6331 l 0,209.226 c 0,11.762 10.29,22.043 23.6,22.043 11.83,0 22.05,-10.281 22.05,-22.043 l 0,-209.226 c 0,-12.364 -10.22,-22.6331 -23.06,-22.6331 z m 29.24,312.8711 c 0,-15.859 -13.36,-29.23 -29.24,-29.23 -15.89,0 -29.22,13.371 -29.22,29.23 0,16.449 13.33,29.75 29.22,29.75 15.88,0 29.24,-13.301 29.24,-29.75 z m -94.88,-1.512 c -3.58,0 -8.22,2.012 -13.87,2.012 -23.08,0 -36.9,-15.859 -36.9,-45.09 l 0,-17.461 33.82,0 c 10.77,0 19.5,-8.687 19.5,-19.461 0,-11.277 -8.19,-20.558 -19.5,-20.558 l -33.82,0 0,-188.168 c 0,-12.364 -10.29,-22.6331 -22.6,-22.6331 -12.82,0 -23.05,9.2811 -23.05,22.6331 l 0,188.168 -24.64,0 c -10.79,0 -19.47,8.781 -19.47,20.058 0,10.774 7.69,19.961 19.47,19.961 l 24.64,0 0,17.461 c 0,51.77 30.23,82.012 74.88,82.012 17.96,0 37.96,-3 37.96,-19.973 0,-10.269 -5.68,-18.961 -16.42,-18.961" /><path
             id="path74"
             style="fill:#f1461f;fill-opacity:1;fill-rule:nonzero;stroke:none"
             d="m 5343.48,317.461 c -49.23,0 -73.37,-41.09 -75.42,-75.422 l 151.79,0 c -0.99,33.32 -23.55,75.422 -76.37,75.422 z m 96.93,-107.742 -172.35,0 c 3.59,-42.528 34.37,-78.418 84.65,-78.418 21.01,0 43.59,7.16 61.51,20.449 3.09,1.59 6.69,2.59 10.26,2.59 8.23,0 18.47,-7.18 18.47,-18.449 0,-27.743 -63.59,-41.5199 -94.88,-41.5199 -73.84,0 -127.71,52.2889 -127.71,130.2189 0,71.82 51.83,129.781 123.61,129.781 60.01,0 101.03,-37.41 115.4,-92.859 2.04,-8.192 4.63,-18.961 4.63,-28.66 0,-12.352 -10.79,-23.133 -23.59,-23.133" /><path
             id="path76"
             style="fill:#f1461f;fill-opacity:1;fill-rule:nonzero;stroke:none"
             d="m 5699.53,276.961 c -12.83,19.949 -41.01,36.898 -69.74,36.898 -46.16,0 -74.89,-37.98 -74.89,-89.769 0,-51.789 28.73,-89.199 74.89,-89.199 28.73,0 56.91,15.859 69.74,36.41 l 0,105.66 z m 22.6,-179.5821 c -12.34,0 -22.6,10.2691 -22.6,22.6331 l 0,15.879 c -18.96,-24.641 -48.19,-41.5199 -81.51,-41.5199 -64.15,0 -110.31,48.6879 -110.31,129.7189 0,79.5 45.66,130.281 110.31,130.281 32.28,0 61.51,-15.359 81.51,-42.101 l 0,111.351 c 0,11.77 10.26,22.039 23.6,22.039 11.82,0 22.05,-10.269 22.05,-22.039 l 0,-303.609 c 0,-12.364 -10.23,-22.6331 -23.05,-22.6331" /><path
             id="path78"
             style="fill:#f1461f;fill-opacity:1;fill-rule:nonzero;stroke:none"
             d="m 5842.77,95.3711 c -16.92,0 -31.29,14.3589 -31.29,31.8199 0,16.879 14.37,31.75 31.29,31.75 17.46,0 31.83,-14.871 31.83,-31.75 0,-17.461 -14.37,-31.8199 -31.83,-31.8199" /></g></g></g></g></svg>